<?xml version="1.0" encoding="utf-8"?>
<!-- Generator: Adobe Illustrator 26.5.0, SVG Export Plug-In . SVG Version: 6.00 Build 0)  -->
<svg version="1.1" id="图层_1" xmlns="http://www.w3.org/2000/svg" xmlns:xlink="http://www.w3.org/1999/xlink" x="0px" y="0px"
	 viewBox="0 0 512 512" style="enable-background:new 0 0 512 512;" xml:space="preserve">
<style type="text/css">
	.st0{fill:#010101;}
	.st1{fill:#383838;}
	.st2{fill:#E71224;}
	.st3{fill:#747474;}
	.st4{fill:#FEC63D;}
	.st5{fill:#FEFDFC;}
	.st6{fill:#C9C9C9;}
</style>
<g>
	<path class="st0" d="M441.2,176.8c-9.6,0-19.2,0.1-28.7,0c-2.3,0-3.3,0.2-1.9,2.7c3,5.6,4.8,11.7,7.4,17.5c0.8,1.6,0.1,2.4-0.9,3.4
		c-5.8,5.8-11.6,11.7-17.6,17.4c-1.7,1.6-2,2.9-1.1,5.1c12.4,29.7,17,60.7,13.8,92.7c-4.7,46.8-23.9,86.9-57.4,119.9
		c-29,28.6-63.7,46.7-103.8,53.5c-89,15.2-174.6-32.3-210.8-112.1C26,345.8,20,312.8,23.9,278.6c7.8-68.7,42.2-120.3,102.6-153.9
		c34.4-19.1,71.7-25.8,110.9-22.1c18.8,1.8,37,6.3,54.4,13.7c2.3,0.9,3.7,0.8,5.4-1.1c5.6-5.9,11.5-11.5,17.1-17.3
		c1.3-1.3,2.3-1.6,4-0.9c5.7,2.6,11.7,4.3,17.1,7.3c2.6,1.5,2.6,0.3,2.6-1.8c-0.1-19.2,0-38.3-0.1-57.5c0-2.7,0.6-3.5,3.4-3.5
		c11.2,0.2,22.5,0,33.8,0.1c2.2,0,3.7-0.7,5.2-2.2c7.6-7.8,15.5-15.4,23-23.2c1.9-2,2.8-1.7,4.5,0.1c7.6,7.8,15.4,15.5,23,23.3
		c1.5,1.5,2.9,2.1,4.9,2.1c11.5-0.1,23,0,34.4-0.1c2.3,0,3,0.6,2.9,2.9c-0.1,11.5,0,23-0.1,34.4c0,2.1,0.6,3.5,2.1,5
		c7.9,7.7,15.6,15.6,23.6,23.2c1.7,1.6,1.6,2.5,0,4.1c-7.9,7.7-15.6,15.6-23.5,23.3c-1.5,1.5-2.1,2.8-2.1,5
		c0.1,11.4-0.1,22.7,0.1,34.1c0,2.7-0.8,3.3-3.3,3.3C460.4,176.7,450.8,176.8,441.2,176.8z M383.2,146.6c1.3-0.1,2.5-0.1,3.8-0.2
		c7.6,0,15.2,0,22.8,0c10.4,0,20.7,0,31,0.2c2,0,2.5-0.6,2.4-2.5c-0.1-5.9,0-11.8-0.1-17.7c0-1.7,0.5-2.9,1.7-4.1
		c3.7-3.6,7.1-7.4,11-10.8c2.3-2.1,2-3.3-0.1-5.1c-3.7-3.3-7.1-7.1-10.7-10.5c-1.3-1.3-1.9-2.6-1.8-4.4c0.1-5.6-0.1-11.1,0.1-16.7
		c0.1-2.4-0.4-3.3-3.1-3.3c-5.5,0.3-10.9,0-16.4,0.1c-2.2,0.1-3.8-0.7-5.2-2.2c-3.3-3.6-7-6.9-10.3-10.5c-1.8-2-2.9-2.3-4.9-0.1
		c-3.3,3.7-7.1,7.1-10.5,10.7c-1.4,1.5-2.8,2.1-5,2.1c-5.8-0.2-11.6,0-17.4-0.1c-1.7,0-2.3,0.5-2.3,2.2c0.1,10.2,0.1,20.5,0.2,30.7
		c-0.6,7.8-0.3,15.6-0.1,23.4c0,0.6,0,1.2,0,1.8c-0.3,1.5-1.1,2.7-2.2,3.9c-4.8,4.7-9.6,9.5-14.3,14.3c-1.5,0.3-2.2-0.8-3.2-1.5
		c-7.1-5.5-14.8-10.1-23-13.9c-2-0.9-3.1-0.6-4.5,0.9c-6.4,6.6-12.9,13.1-19.4,19.6c-1.1,0.3-2.2,0-3.2-0.6c-4.5-2.7-9.3-4.9-14.1-7
		c-18.1-8-37-12.5-56.6-13.6c-13.3-0.8-26.6,0-39.8,2.5c-32.6,6.3-60.7,21-84.6,43.8c-15.5,14.7-27.4,32-36.2,51.6
		c-8.4,18.9-13.1,38.9-14.1,59.5c-0.7,13.5,0.4,26.8,3.2,40.1c6.9,34,23.1,62.9,48.1,86.9c14.1,13.5,30,23.8,47.7,31.9
		c19.4,8.7,39.8,12.9,60.9,13.7c17.3,0.6,34.3-1.6,51-6.5c23.4-6.9,44.5-18.2,62.6-34.3c18.5-16.4,33.1-36,42.8-58.9
		c8.3-19.4,12.9-39.6,13.5-60.7c0.3-8.1-0.3-16.2-1.2-24.2c-2-17.2-6.7-33.7-13.8-49.4c-2.2-4.9-5.4-9.3-6.9-14.3
		c6.9-6.9,13.8-13.8,20.8-20.6c1.2-1.2,0.9-2.1,0.3-3.2c-3-6.6-6.4-12.9-10.5-18.8c-1.7-2.6-4.1-4.6-5.3-7.5
		C372,157.7,377.6,152.2,383.2,146.6z"/>
	<path class="st1" d="M361.1,213.5c1.6,5.1,4.8,9.5,6.9,14.3c7.1,15.8,11.8,32.2,13.8,49.4c0.9,8.1,1.5,16.2,1.2,24.2
		c-0.6,21.1-5.2,41.3-13.5,60.7c-9.9,22.9-24.3,42.4-42.8,58.9c-18.2,16.2-39.2,27.4-62.6,34.3c-16.6,4.9-33.7,7.1-51,6.5
		c-21.2-0.8-41.6-5-60.9-13.7c-17.7-8-33.7-18.4-47.7-31.9c-25-24-41.2-52.9-48.1-86.9c-2.7-13.2-3.8-26.6-3.2-40.1
		c1-20.6,5.7-40.6,14.1-59.5c8.7-19.5,20.6-36.8,36.2-51.6c23.9-22.8,52.1-37.5,84.6-43.8c13.2-2.5,26.5-3.3,39.8-2.5
		c19.6,1.1,38.6,5.7,56.6,13.6c4.8,2.1,9.5,4.3,14.1,7c1,0.6,2.1,0.9,3.2,0.6c-0.1,1.6,1.3,1.9,2.3,2.5
		c18.2,11.2,33.9,25.3,46.6,42.6C354.2,203.3,357.6,208.4,361.1,213.5z M113.1,221.2c-0.7,16.2,13.9,30.3,29.2,30.3
		c17.2,0,31-13.3,30.9-30.1c-0.1-15.9-13.9-29.4-29.6-29.7C126.5,191.4,112.7,206.1,113.1,221.2z"/>
	<path class="st2" d="M368.5,104.7c-0.1-10.2-0.1-20.5-0.2-30.7c0-1.8,0.6-2.3,2.3-2.2c5.8,0.1,11.6-0.1,17.4,0.1
		c2.1,0.1,3.5-0.6,5-2.1c3.4-3.6,7.2-6.9,10.5-10.7c2-2.2,3.1-1.9,4.9,0.1c3.3,3.6,6.9,6.9,10.3,10.5c1.5,1.5,3,2.3,5.2,2.2
		c5.5-0.2,10.9,0.1,16.4-0.1c2.7-0.1,3.2,0.8,3.1,3.3c-0.2,5.6,0,11.1-0.1,16.7c0,1.8,0.5,3.1,1.8,4.4c3.6,3.4,7,7.2,10.7,10.5
		c2.1,1.9,2.5,3.1,0.1,5.1c-3.9,3.4-7.3,7.2-11,10.8c-1.2,1.2-1.7,2.4-1.7,4.1c0.1,5.9,0,11.8,0.1,17.7c0,1.9-0.5,2.5-2.4,2.5
		c-10.4-0.1-20.7-0.1-31-0.2c4.2-4.3,8.3-8.7,12.7-12.9c1.7-1.6,1.9-2.9-0.1-4.2c-8.1-5.6-10.9-13.2-9.3-22.7c0-0.1,0-0.3,0-0.3
		c-0.1-5.5,0.6-5.3-4.7-4.7c-9.7,1.1-17.6-1.2-23.3-9.5c-0.1-0.1-0.2-0.2-0.3-0.3c-1.2-1.7-2.2-1.5-3.7,0
		C377,96.3,372.8,100.5,368.5,104.7z"/>
	<path class="st3" d="M361.1,213.5c-3.5-5.1-6.9-10.2-10.6-15.2c-12.7-17.2-28.4-31.4-46.6-42.6c-1-0.6-2.4-0.9-2.3-2.5
		c6.5-6.5,13-13,19.4-19.6c1.5-1.5,2.7-1.8,4.5-0.9c8.2,3.7,15.9,8.3,23,13.9c0.9,0.7,1.7,1.8,3.2,1.5c0.1,0.4,0.1,1,0.3,1.2
		c5.2,4.3,9.4,9.6,14.4,14.1c1.2,2.9,3.6,5.1,5.3,7.5c4.1,6,7.5,12.3,10.5,18.8c0.5,1.1,0.9,2.1-0.3,3.2
		C374.9,199.7,368,206.6,361.1,213.5z"/>
	<path class="st4" d="M368.5,104.7c4.3-4.2,8.7-8.3,12.9-12.7c1.4-1.5,2.4-1.8,3.7,0c0.1,0.1,0.2,0.2,0.3,0.3
		c5.7,8.4,13.6,10.6,23.3,9.5c5.4-0.6,4.6-0.8,4.7,4.7c0,0.1,0,0.3,0,0.3c-1.6,9.4,1.1,17.1,9.3,22.7c2,1.4,1.7,2.6,0.1,4.2
		c-4.3,4.2-8.5,8.6-12.7,12.9c-7.6,0-15.2,0-22.8,0c5.8-2.2,10.1-5.9,11.1-12.4c0.8-5.3,0.2-10.6,0.3-15.9c0-1.5-0.9-1.5-2.1-1.5
		c-3.3,0-6.4,0.2-9.7,0c-9-0.7-15.2,3.1-18.3,11.6C368.1,120.3,367.9,112.5,368.5,104.7z"/>
	<path class="st5" d="M368.4,128.1c3.2-8.5,9.3-12.3,18.3-11.6c3.2,0.3,6.4,0.1,9.7,0c1,0,2.1,0.1,2.1,1.5
		c-0.2,5.3,0.4,10.6-0.3,15.9c-0.9,6.5-5.2,10.2-11.1,12.4c-1.3,0.1-2.6,0.1-3.8,0.2c-1.3-0.2-2.7-0.1-3.9-0.5
		c-7.3-2.3-10.3-6.7-10.9-16.3C368.3,129.3,368.4,128.7,368.4,128.1z"/>
	<path class="st6" d="M368.3,129.9c0.6,9.5,3.6,14,10.9,16.3c1.3,0.4,2.7,0.4,3.9,0.5c-5.6,5.6-11.1,11.1-16.8,16.7
		c-5-4.5-9.2-9.9-14.4-14.1c-0.3-0.2-0.2-0.8-0.3-1.2c4.8-4.8,9.5-9.6,14.3-14.3C367.3,132.6,368,131.4,368.3,129.9z"/>
	<path class="st3" d="M113.1,221.2c-0.5-15.1,13.4-29.8,30.6-29.5c15.6,0.3,29.4,13.8,29.6,29.7c0.1,16.8-13.7,30.1-30.9,30.1
		C127.1,251.5,112.5,237.4,113.1,221.2z"/>
</g>
</svg>
